<?xml version="1.0" encoding="UTF-8" standalone="no"?>
<svg
   xmlns:dc="http://purl.org/dc/elements/1.1/"
   xmlns:cc="http://creativecommons.org/ns#"
   xmlns:rdf="http://www.w3.org/1999/02/22-rdf-syntax-ns#"
   xmlns:svg="http://www.w3.org/2000/svg"
   xmlns="http://www.w3.org/2000/svg"
   xmlns:sodipodi="http://sodipodi.sourceforge.net/DTD/sodipodi-0.dtd"
   xmlns:inkscape="http://www.inkscape.org/namespaces/inkscape"
   sodipodi:docname="logo.svg"
   inkscape:version="1.0 (4035a4fb49, 2020-05-01)"
   id="svg8"
   version="1.1"
   viewBox="0 0 210 297"
   height="1122.5197"
   width="793.70081">
  <defs
     id="defs2">
    <filter
       height="1.0008067"
       y="-0.0004033402"
       width="1.0001056"
       x="-5.2784168e-05"
       id="filter923"
       style="color-interpolation-filters:sRGB"
       inkscape:collect="always">
      <feGaussianBlur
         id="feGaussianBlur925"
         stdDeviation="0.0039819187"
         inkscape:collect="always" />
    </filter>
  </defs>
  <sodipodi:namedview
     inkscape:window-maximized="1"
     inkscape:window-y="-8"
     inkscape:window-x="-8"
     inkscape:window-height="1027"
     inkscape:window-width="2560"
     showborder="false"
     units="px"
     showgrid="false"
     inkscape:document-rotation="0"
     inkscape:current-layer="layer2"
     inkscape:document-units="mm"
     inkscape:cy="19.315911"
     inkscape:cx="412.44681"
     inkscape:zoom="0.84967653"
     inkscape:pageshadow="2"
     inkscape:pageopacity="0.0"
     borderopacity="1.0"
     bordercolor="#666666"
     pagecolor="#ffffff"
     id="base" />
  <metadata
     id="metadata5">
    <rdf:RDF>
      <cc:Work
         rdf:about="">
        <dc:format>image/svg+xml</dc:format>
        <dc:type
           rdf:resource="http://purl.org/dc/dcmitype/StillImage" />
        <dc:title></dc:title>
      </cc:Work>
    </rdf:RDF>
  </metadata>
  <g
     style="opacity:1;filter:url(#filter923)"
     inkscape:label="work"
     id="layer2"
     inkscape:groupmode="layer">
    <path
       d="m -85.733783,-6.6339209 -14.146424,3.0628632 1.133782,5.2182845 16.615521,0.069247 -0.854726,-5.8166989 -2.203484,-0.013952 z"
       style="opacity:1;fill:#808080;stroke-width:5.29167"
       id="path855" />
    <path
       d="m -87.690252,-18.196005 2.929019,13.5552443 1.697569,0.010852 -0.205671,-1.3988809 -0.06666,-0.4470011 2.162657,-0.6816121 -2.247408,-10.2675902 z"
       style="opacity:1;fill:#333333;stroke:none;stroke-width:0.529167;stroke-miterlimit:4;stroke-dasharray:none"
       id="path861" />
    <path
       d="m -81.059651,-6.638055 -1.687235,0.5317506 1.133782,7.7080572 18.042308,0.1111038 -0.84491,-5.736084 -16.099793,-0.1281575 z"
       style="opacity:1;fill:#808080;stroke-width:5.29167"
       id="path851" />
    <path
       d="m -62.547086,-6.6235854 -1.639692,0.517281 1.133779,7.7080572 22.005893,0.091466 v -5.7340166 l -20.958929,-0.1105876 z m 55.7480178,0.3317626 -0.4702553,2.1771282 -6.8440265,0.043925 v 5.7252329 l 7.9101113,-0.046508 1.1337808,-7.3778456 z m -7.8434488,2.2246703 -14.132471,0.090951 -11.742435,-0.062012 v 5.7334994 l 11.998235,0.049609 v -0.00568 l 13.876671,-0.081648 z"
       style="opacity:1;fill:#808080;stroke-width:5.29167"
       id="path853" />
    <path
       d="m -83.869299,-21.951849 3.779615,17.2738811 15.596463,0.1255738 -0.217556,-1.4763956 -0.0646,-0.4470011 2.1146,-0.6666261 -2.29495,-10.4861811 z"
       style="opacity:1;fill:#333333;stroke-width:5.29167"
       id="path859" />
    <path
       d="m -65.359835,-21.951849 3.779615,17.2738811 17.507458,0.1410768 -2.891295,-13.2100459 z"
       style="opacity:1;fill:#333333;stroke-width:5.29167"
       id="path863" />
    <path
       d="m -47.341295,-21.951849 3.588412,16.4010662 12.380121,-12.7511592 z m 39.1025215,0 -15.4507365,3.642672 11.868009,12.732556 z"
       style="opacity:1;fill:#333333;stroke-width:5.29167"
       id="path865" />
    <path
       d="m -4.7683006,-18.196005 -3.8473104,0.694531 -2.819466,12.884484 3.7372394,-0.02377 z"
       style="opacity:1;fill:#333333;stroke-width:5.29167"
       id="path869" />
    <path
       sodipodi:nodetypes="cccc"
       d="M -12.018251,-4.6779679 H -43.561682 L -27.468466,-21.253327 Z"
       inkscape:transform-center-y="-1.4871934"
       style="opacity:1;fill:#333333;stroke:none;stroke-width:1.05833;stroke-miterlimit:4;stroke-dasharray:none"
       id="path1047" />
  </g>
</svg>
