<?xml version="1.0" encoding="UTF-8"?>
<svg width="359.48" height="89.563" version="1.1" viewBox="0 0 95.112 23.697" xmlns="http://www.w3.org/2000/svg" xmlns:cc="http://creativecommons.org/ns#" xmlns:dc="http://purl.org/dc/elements/1.1/" xmlns:rdf="http://www.w3.org/1999/02/22-rdf-syntax-ns#">
 <defs>
  <filter id="filter923" x="-5.2784e-5" y="-.00040334" width="1.0001" height="1.0008" color-interpolation-filters="sRGB">
   <feGaussianBlur stdDeviation="0.0039819187"/>
  </filter>
 </defs>
 <metadata>
  <rdf:RDF>
   <cc:Work rdf:about="">
    <dc:format>image/svg+xml</dc:format>
    <dc:type rdf:resource="http://purl.org/dc/dcmitype/StillImage"/>
    <dc:title/>
   </cc:Work>
  </rdf:RDF>
 </metadata>
 <g transform="translate(-49.588 -40.015)" filter="url(#filter923)">
  <path d="m63.735 55.333-14.146 3.0629 1.1338 5.2183 16.616 0.06925-0.85473-5.8167-2.2035-0.01395z" fill="#808080" stroke-width="5.2917"/>
  <path d="m61.778 43.771 2.929 13.555 1.6976 0.01085-0.20567-1.3989-0.06666-0.447 2.1627-0.68161-2.2474-10.268z" fill="#333"/>
  <path d="m68.409 55.329-1.6872 0.53175 1.1338 7.7081 18.042 0.1111-0.84491-5.7361-16.1-0.12816z" fill="#808080" stroke-width="5.2917"/>
  <path d="m86.922 55.344-1.6397 0.51728 1.1338 7.7081 22.006 0.09147v-5.734l-20.959-0.11059zm55.748 0.33176-0.47026 2.1771-6.844 0.04393v5.7252l7.9101-0.04651 1.1338-7.3778zm-7.8434 2.2247-14.132 0.09095-11.742-0.06201v5.7335l11.998 0.04961v-0.0057l13.877-0.08165z" fill="#808080" stroke-width="5.2917"/>
  <g fill="#333">
   <g stroke-width="5.2917">
    <path d="m65.599 40.015 3.7796 17.274 15.596 0.12557-0.21756-1.4764-0.0646-0.447 2.1146-0.66663-2.295-10.486z"/>
    <path d="m84.109 40.015 3.7796 17.274 17.507 0.14108-2.8913-13.21z"/>
    <path d="m102.13 40.015 3.5884 16.401 12.38-12.751zm39.103 0-15.451 3.6427 11.868 12.733z"/>
    <path d="m144.7 43.771-3.8473 0.69453-2.8195 12.884 3.7372-0.02377z"/>
   </g>
   <path d="m137.45 57.289h-31.543l16.093-16.575z"/>
  </g>
 </g>
</svg>
